<?xml version="1.0" encoding="UTF-8"?>
<!DOCTYPE svg PUBLIC "-//W3C//DTD SVG 1.1//EN" "http://www.w3.org/Graphics/SVG/1.1/DTD/svg11.dtd">
<!-- Creator: CorelDRAW 2019 (64-Bit) -->
<svg xmlns="http://www.w3.org/2000/svg" xml:space="preserve" width="83.7642mm" height="138.627mm" version="1.1" style="shape-rendering:geometricPrecision; text-rendering:geometricPrecision; image-rendering:optimizeQuality; fill-rule:evenodd; clip-rule:evenodd"
viewBox="0 0 8362.18 13839.1"
 xmlns:xlink="http://www.w3.org/1999/xlink">
 <defs>
  <style type="text/css">
   <![CDATA[
    .str1 {stroke:black;stroke-width:7.61;stroke-miterlimit:22.9256}
    .str0 {stroke:black;stroke-width:7.61;stroke-linejoin:bevel;stroke-miterlimit:22.9256}
    .fil0 {fill:none}
   ]]>
  </style>
 </defs>
 <g id="Layer_x0020_1">
  <metadata id="CorelCorpID_0Corel-Layer"/>
  <g id="_1916801859872">
   <path class="fil0 str0" d="M7433.05 2626.24l199.67 0c26.49,-0.02 51.89,-10.56 70.62,-29.31 18.72,-18.74 29.23,-44.04 29.21,-70.52l0 -1197.96c-0.02,-26.49 -10.56,-51.9 -29.3,-70.62 -18.75,-18.73 -44.04,-29.23 -70.53,-29.21l-199.67 0 0 -99.83c0,-27.45 -22.46,-49.92 -49.91,-49.92l-698.82 0c-27.44,0 -49.92,22.46 -49.92,49.92l0 99.83 -199.65 0c-26.49,0.01 -51.89,10.55 -70.62,29.3 -18.72,18.74 -29.23,44.04 -29.21,70.53l0 1197.96c0.02,26.48 10.56,51.89 29.3,70.61 18.75,18.73 44.04,29.23 70.53,29.22l199.65 0 0 99.84c0,27.44 22.47,49.91 49.92,49.91l698.82 0c27.44,0 49.91,-22.46 49.91,-49.91l0 -99.84z"/>
   <path class="fil0 str0" d="M4949.03 1927.43c0,118.54 96.1,214.62 214.63,214.62 118.54,0.01 214.63,-96.09 214.63,-214.62 0,-118.55 -96.1,-214.63 -214.63,-214.63 -118.54,-0.01 -214.63,96.09 -214.63,214.62z"/>
   <path class="fil0 str0" d="M403.12 13835.3c-105.84,0.07 -207.37,-41.91 -282.26,-116.7 -74.88,-74.79 -116.99,-176.78 -117.06,-282.62l0 -12234.21c-0.2,-317.52 125.74,-622.12 350.11,-846.78 224.38,-224.66 530.33,-350.98 847.85,-351.18l5958.66 0c317.52,-0.21 622.11,125.74 846.77,350.11 224.67,224.38 350.99,530.33 351.19,847.85l0 12234.21c0.07,105.84 -41.91,207.38 -116.7,282.26 -74.79,74.89 -176.78,117 -282.62,117.06l-7555.94 0z"/>
   <rect class="fil0 str1" x="584.09" y="1294.38" width="3893.37" height="1297.79" rx="99.83" ry="99.83"/>
   <path class="fil0 str0" d="M629.64 3705.65l0 1197.96c0.02,26.48 10.56,51.89 29.3,70.61 18.75,18.73 44.04,29.23 70.53,29.22l1197.96 0c26.49,-0.02 51.89,-10.56 70.62,-29.31 18.72,-18.74 29.23,-44.04 29.21,-70.52l0 -1197.96c-0.02,-26.49 -10.56,-51.9 -29.3,-70.62 -18.75,-18.73 -44.04,-29.23 -70.53,-29.21l-1197.96 0c-26.49,0.01 -51.89,10.55 -70.62,29.3 -18.72,18.74 -29.23,44.04 -29.21,70.53z"/>
   <path class="fil0 str0" d="M4433.16 3705.65c-0.02,-26.46 10.48,-51.85 29.18,-70.57 18.7,-18.72 44.19,-29.25 70.65,-29.26l1197.96 0c26.45,-0.02 51.84,10.47 70.56,29.17 18.73,18.7 29.25,44.19 29.27,70.66l0 1197.96c0.02,26.45 -10.48,51.84 -29.18,70.56 -18.7,18.72 -44.19,29.25 -70.65,29.27l-1197.96 0c-26.45,0.01 -51.84,-10.48 -70.56,-29.18 -18.73,-18.7 -29.25,-44.19 -29.27,-70.65l0 -1197.96z"/>
   <path class="fil0 str0" d="M5730.95 7409.34c26.45,-0.01 51.84,10.48 70.56,29.18 18.73,18.7 29.25,44.19 29.27,70.65l0 1197.96c0.02,26.46 -10.48,51.85 -29.18,70.57 -18.7,18.72 -44.19,29.25 -70.65,29.26l-1197.96 0c-26.45,0.02 -51.84,-10.47 -70.56,-29.17 -18.73,-18.7 -29.25,-44.19 -29.27,-70.66l0 -1197.96c-0.02,-26.45 10.48,-51.84 29.18,-70.56 18.7,-18.72 44.19,-29.25 70.65,-29.27l1197.96 0z"/>
   <path class="fil0 str0" d="M2531.4 7509.17l0 1197.96c0.02,26.49 10.56,51.9 29.3,70.62 18.75,18.73 44.04,29.23 70.53,29.21l1197.96 0c26.49,-0.01 51.89,-10.55 70.62,-29.3 18.72,-18.74 29.23,-44.04 29.21,-70.53l0 -1197.96c-0.02,-26.48 -10.56,-51.89 -29.3,-70.61 -18.75,-18.73 -44.04,-29.23 -70.53,-29.22l-1197.96 0c-26.49,0.02 -51.89,10.56 -70.62,29.31 -18.72,18.74 -29.23,44.04 -29.21,70.52z"/>
   <path class="fil0 str0" d="M629.64 7509.17c-0.02,-26.45 10.48,-51.84 29.18,-70.56 18.7,-18.72 44.19,-29.25 70.65,-29.27l1197.96 0c26.45,-0.01 51.84,10.48 70.56,29.18 18.73,18.7 29.25,44.19 29.27,70.65l0 1197.96c0.02,26.46 -10.48,51.85 -29.18,70.57 -18.7,18.72 -44.19,29.25 -70.65,29.26l-1197.96 0c-26.45,0.02 -51.84,-10.47 -70.56,-29.17 -18.73,-18.7 -29.25,-44.19 -29.27,-70.66l0 -1197.96z"/>
   <path class="fil0 str0" d="M2531.4 9410.93c-0.02,-26.45 10.48,-51.84 29.18,-70.56 18.7,-18.72 44.19,-29.25 70.65,-29.27l1197.96 0c26.45,-0.01 51.84,10.48 70.56,29.18 18.73,18.7 29.25,44.19 29.27,70.65l0 1197.96c0.02,26.46 -10.48,51.85 -29.18,70.57 -18.7,18.72 -44.19,29.25 -70.65,29.26l-1197.96 0c-26.45,0.02 -51.84,-10.47 -70.56,-29.17 -18.73,-18.7 -29.25,-44.19 -29.27,-70.66l0 -1197.96z"/>
   <path class="fil0 str0" d="M4433.16 11312.69c-0.02,-26.45 10.48,-51.84 29.18,-70.56 18.7,-18.72 44.19,-29.25 70.65,-29.27l1197.96 0c26.45,-0.01 51.84,10.48 70.56,29.18 18.73,18.7 29.25,44.19 29.27,70.65l0 1197.96c0.02,26.46 -10.48,51.85 -29.18,70.57 -18.7,18.72 -44.19,29.25 -70.65,29.26l-1197.96 0c-26.45,0.02 -51.84,-10.47 -70.56,-29.17 -18.73,-18.7 -29.25,-44.19 -29.27,-70.66l0 -1197.96z"/>
   <path class="fil0 str0" d="M4433.16 9410.93c-0.02,-26.45 10.48,-51.84 29.18,-70.56 18.7,-18.72 44.19,-29.25 70.65,-29.27l1197.96 0c26.45,-0.01 51.84,10.48 70.56,29.18 18.73,18.7 29.25,44.19 29.27,70.65l0 1197.96c0.02,26.46 -10.48,51.85 -29.18,70.57 -18.7,18.72 -44.19,29.25 -70.65,29.26l-1197.96 0c-26.45,0.02 -51.84,-10.47 -70.56,-29.17 -18.73,-18.7 -29.25,-44.19 -29.27,-70.66l0 -1197.96z"/>
   <path class="fil0 str0" d="M2531.4 3705.65c-0.02,-26.46 10.48,-51.85 29.18,-70.57 18.7,-18.72 44.19,-29.25 70.65,-29.26l1197.96 0c26.45,-0.02 51.84,10.47 70.56,29.17 18.73,18.7 29.25,44.19 29.27,70.66l0 1197.96c0.02,26.45 -10.48,51.84 -29.18,70.56 -18.7,18.72 -44.19,29.25 -70.65,29.27l-1197.96 0c-26.45,0.01 -51.84,-10.48 -70.56,-29.18 -18.73,-18.7 -29.25,-44.19 -29.27,-70.65l0 -1197.96z"/>
   <path class="fil0 str0" d="M2531.4 5607.41c-0.02,-26.46 10.48,-51.85 29.18,-70.57 18.7,-18.72 44.19,-29.25 70.65,-29.26l1197.96 0c26.45,-0.02 51.84,10.47 70.56,29.17 18.73,18.7 29.25,44.19 29.27,70.66l0 1197.95c0.02,26.46 -10.48,51.85 -29.18,70.57 -18.7,18.72 -44.19,29.25 -70.65,29.26l-1197.96 0c-26.45,0.02 -51.84,-10.47 -70.56,-29.17 -18.73,-18.7 -29.25,-44.19 -29.27,-70.66l0 -1197.95z"/>
   <path class="fil0 str0" d="M6334.93 3705.65c-0.02,-26.46 10.48,-51.85 29.18,-70.57 18.7,-18.72 44.19,-29.25 70.65,-29.26l1197.96 0c26.45,-0.02 51.84,10.47 70.56,29.17 18.73,18.7 29.25,44.19 29.27,70.66l0 1197.96c0.02,26.45 -10.48,51.84 -29.18,70.56 -18.7,18.72 -44.19,29.25 -70.65,29.27l-1197.96 0c-26.45,0.01 -51.84,-10.48 -70.56,-29.18 -18.73,-18.7 -29.25,-44.19 -29.27,-70.65l0 -1197.96z"/>
   <path class="fil0 str0" d="M629.64 5607.41l0 1197.95c0.02,26.49 10.56,51.9 29.3,70.62 18.75,18.73 44.04,29.23 70.53,29.21l1197.96 0c26.49,-0.01 51.89,-10.55 70.62,-29.3 18.72,-18.74 29.23,-44.04 29.21,-70.53l0 -1197.95c-0.02,-26.49 -10.56,-51.9 -29.3,-70.62 -18.75,-18.73 -44.04,-29.23 -70.53,-29.21l-1197.96 0c-26.49,0.01 -51.89,10.55 -70.62,29.3 -18.72,18.74 -29.23,44.04 -29.21,70.53z"/>
   <path class="fil0 str0" d="M629.64 9410.93c-0.02,-26.45 10.48,-51.84 29.18,-70.56 18.7,-18.72 44.19,-29.25 70.65,-29.27l1197.96 0c26.45,-0.01 51.84,10.48 70.56,29.18 18.73,18.7 29.25,44.19 29.27,70.65l0 1197.96c0.02,26.46 -10.48,51.85 -29.18,70.57 -18.7,18.72 -44.19,29.25 -70.65,29.26l-1197.96 0c-26.45,0.02 -51.84,-10.47 -70.56,-29.17 -18.73,-18.7 -29.25,-44.19 -29.27,-70.66l0 -1197.96z"/>
   <path class="fil0 str0" d="M4433.16 5607.41c-0.02,-26.46 10.48,-51.85 29.18,-70.57 18.7,-18.72 44.19,-29.25 70.65,-29.26l1197.96 0c26.45,-0.02 51.84,10.47 70.56,29.17 18.73,18.7 29.25,44.19 29.27,70.66l0 1197.95c0.02,26.46 -10.48,51.85 -29.18,70.57 -18.7,18.72 -44.19,29.25 -70.65,29.26l-1197.96 0c-26.45,0.02 -51.84,-10.47 -70.56,-29.17 -18.73,-18.7 -29.25,-44.19 -29.27,-70.66l0 -1197.95z"/>
   <path class="fil0 str0" d="M6285.01 5628.58c-13.24,0 -25.95,5.26 -35.3,14.62 -9.35,9.35 -14.62,22.06 -14.62,35.3l0 574.02c0,13.23 5.26,25.95 14.62,35.3 9.35,9.35 22.06,14.62 35.3,14.62l49.92 0 0 1709.69 -49.92 0c-13.24,0 -25.95,5.26 -35.3,14.62 -9.35,9.35 -14.62,22.06 -14.62,35.3l0 574.02c0,13.24 5.26,25.95 14.62,35.3 9.35,9.35 22.06,14.62 35.3,14.62l49.92 0 0 71.08c0,13.24 5.26,25.95 14.62,35.3 9.35,9.35 22.06,14.62 35.3,14.62l1297.79 0c13.24,0 25.95,-5.26 35.3,-14.62 9.35,-9.35 14.62,-22.06 14.62,-35.3l0 -3199.55c0,-13.24 -5.26,-25.95 -14.62,-35.3 -9.35,-9.35 -22.06,-14.62 -35.3,-14.62l-1297.79 0c-13.24,0 -25.94,5.26 -35.3,14.62 -9.35,9.36 -14.62,22.06 -14.62,35.3l0 71.08 -49.92 0z"/>
   <path class="fil0 str0" d="M6285.01 9432.1c-13.24,0 -25.95,5.26 -35.3,14.62 -9.35,9.35 -14.62,22.06 -14.62,35.3l0 574.02c0,13.23 5.26,25.95 14.62,35.3 9.35,9.35 22.06,14.62 35.3,14.62l49.92 0 0 1709.69 -49.92 0c-13.24,0 -25.95,5.26 -35.3,14.62 -9.35,9.35 -14.62,22.06 -14.62,35.3l0 574.02c0,13.24 5.26,25.95 14.62,35.3 9.35,9.35 22.06,14.62 35.3,14.62l49.92 0 0 71.08c0,13.24 5.26,25.95 14.62,35.3 9.35,9.35 22.06,14.62 35.3,14.62l1297.79 0c13.24,0 25.95,-5.26 35.3,-14.62 9.35,-9.35 14.62,-22.06 14.62,-35.3l0 -3199.55c0,-13.24 -5.26,-25.95 -14.62,-35.3 -9.35,-9.35 -22.06,-14.62 -35.3,-14.62l-1297.79 0c-13.24,0 -25.94,5.26 -35.3,14.62 -9.35,9.36 -14.62,22.06 -14.62,35.3l0 71.08 -49.92 0z"/>
   <path class="fil0 str0" d="M3808.04 11162.95c0,-13.24 -5.26,-25.95 -14.62,-35.3 -9.35,-9.35 -22.06,-14.62 -35.3,-14.62l-574.02 0c-13.23,0 -25.95,5.26 -35.3,14.62 -9.35,9.35 -14.62,22.06 -14.62,35.3l0 49.92 -1709.69 0 0 -49.92c0,-13.24 -5.26,-25.95 -14.62,-35.3 -9.35,-9.35 -22.06,-14.62 -35.3,-14.62l-574.02 0c-13.24,0 -25.95,5.26 -35.3,14.62 -9.35,9.35 -14.62,22.06 -14.62,35.3l0 49.92 -71.08 0c-13.24,0 -25.95,5.26 -35.3,14.62 -9.35,9.35 -14.62,22.06 -14.62,35.3l0 1297.79c0,13.24 5.26,25.95 14.62,35.3 9.35,9.35 22.06,14.62 35.3,14.62l3199.55 0c13.24,0 25.95,-5.26 35.3,-14.62 9.35,-9.35 14.62,-22.06 14.62,-35.3l0 -1297.79c0,-13.24 -5.26,-25.94 -14.62,-35.3 -9.36,-9.35 -22.06,-14.62 -35.3,-14.62l-71.08 0 0 -49.92z"/>
   <circle class="fil0 str1" cx="1201.76" cy="426.83" r="190.21"/>
   <circle class="fil0 str1" cx="7160.42" cy="426.83" r="190.21"/>
   <circle class="fil0 str1" cx="490.18" cy="13348.92" r="190.21"/>
   <circle class="fil0 str1" cx="7872.01" cy="13348.92" r="190.21"/>
  </g>
 </g>
</svg>
