999
"DXF R12 Output" (www.mydxf.blogspot.com)
 0 
SECTION
 2 
HEADER
 9 
$ACADVER
 1 
AC1009
 9 
$EXTMIN
 10 
 0 
 20 
 0 
 9 
$EXTMAX
 10 
 8.5 
 20 
 11 
 0 
ENDSEC
 0 
SECTION
 2 
ENTITIES
0
LINE
8
Layer 1
10
10.964300
20
38.652400
11
10.964300
21
35.290000
0
LINE
8
Layer 1
10
10.964300
20
35.290000
11
11.046538
21
35.091822
0
LINE
8
Layer 1
10
11.046538
20
35.091822
11
11.244487
21
35.009803
0
LINE
8
Layer 1
10
11.244487
20
35.009803
11
14.606900
21
35.009800
0
LINE
8
Layer 1
10
14.606900
20
35.009800
11
14.805107
21
35.092068
0
LINE
8
Layer 1
10
14.805107
20
35.092068
11
14.887096
21
35.289997
0
LINE
8
Layer 1
10
14.887096
20
35.289997
11
14.887100
21
38.652400
0
LINE
8
Layer 1
10
14.887100
20
38.652400
11
14.804800
21
38.850700
0
LINE
8
Layer 1
10
14.804800
20
38.850700
11
14.606900
21
38.932600
0
LINE
8
Layer 1
10
14.606900
20
38.932600
11
11.244400
21
38.932600
0
LINE
8
Layer 1
10
11.244400
20
38.932600
11
11.046200
21
38.850400
0
LINE
8
Layer 1
10
11.046200
20
38.850400
11
10.964300
21
38.652400
0
LINE
8
Layer 1
10
10.964300
20
38.652400
11
10.964300
21
38.652400
0
LINE
8
Layer 1
10
21.716900
20
38.652400
11
21.798800
21
38.850500
0
LINE
8
Layer 1
10
21.798800
20
38.850500
11
21.997100
21
38.932600
0
LINE
8
Layer 1
10
21.997100
20
38.932600
11
25.359600
21
38.932600
0
LINE
8
Layer 1
10
25.359600
20
38.932600
11
25.557638
21
38.850730
0
LINE
8
Layer 1
10
25.557638
20
38.850730
11
25.639796
21
38.652413
0
LINE
8
Layer 1
10
25.639796
20
38.652413
11
25.639700
21
35.290000
0
LINE
8
Layer 1
10
25.639700
20
35.290000
11
25.557790
21
35.091962
0
LINE
8
Layer 1
10
25.557790
20
35.091962
11
25.359503
21
35.009804
0
LINE
8
Layer 1
10
25.359503
20
35.009804
11
21.997100
21
35.009800
0
LINE
8
Layer 1
10
21.997100
20
35.009800
11
21.799062
21
35.091709
0
LINE
8
Layer 1
10
21.799062
20
35.091709
11
21.716914
21
35.289996
0
LINE
8
Layer 1
10
21.716914
20
35.289996
11
21.716900
21
38.652400
0
LINE
8
Layer 1
10
25.359600
20
28.180000
11
25.557638
21
28.098101
0
LINE
8
Layer 1
10
25.557638
20
28.098101
11
25.639796
21
27.899814
0
LINE
8
Layer 1
10
25.639796
20
27.899814
11
25.639700
21
24.537400
0
LINE
8
Layer 1
10
25.639700
20
24.537400
11
25.557790
21
24.339332
0
LINE
8
Layer 1
10
25.557790
20
24.339332
11
25.359503
21
24.257204
0
LINE
8
Layer 1
10
25.359503
20
24.257204
11
21.997100
21
24.257200
0
LINE
8
Layer 1
10
21.997100
20
24.257200
11
21.799062
21
24.339079
0
LINE
8
Layer 1
10
21.799062
20
24.339079
11
21.716914
21
24.537396
0
LINE
8
Layer 1
10
21.716914
20
24.537396
11
21.716900
21
27.899800
0
LINE
8
Layer 1
10
21.716900
20
27.899800
11
21.798799
21
28.097838
0
LINE
8
Layer 1
10
21.798799
20
28.097838
11
21.997086
21
28.179986
0
LINE
8
Layer 1
10
21.997086
20
28.179986
11
25.359600
21
28.180000
0
LINE
8
Layer 1
10
30.183500
20
41.716100
11
30.748000
21
41.716100
0
LINE
8
Layer 1
10
30.748000
20
41.716100
11
30.947652
21
41.798965
0
LINE
8
Layer 1
10
30.947652
20
41.798965
11
31.030227
21
41.998327
0
LINE
8
Layer 1
10
31.030227
20
41.998327
11
31.030200
21
45.385000
0
LINE
8
Layer 1
10
31.030200
20
45.385000
11
30.947365
21
45.584641
0
LINE
8
Layer 1
10
30.947365
20
45.584641
11
30.747972
21
45.667227
0
LINE
8
Layer 1
10
30.747972
20
45.667227
11
30.183500
21
45.667200
0
LINE
8
Layer 1
10
30.183500
20
45.667200
11
30.183500
21
45.949400
0
LINE
8
Layer 1
10
30.183500
20
45.949400
11
30.042412
21
46.090509
0
LINE
8
Layer 1
10
30.042412
20
46.090509
11
28.066900
21
46.090500
0
LINE
8
Layer 1
10
28.066900
20
46.090500
11
27.925791
21
45.949391
0
LINE
8
Layer 1
10
27.925791
20
45.949391
11
27.925700
21
45.667200
0
LINE
8
Layer 1
10
27.925700
20
45.667200
11
27.361300
21
45.667200
0
LINE
8
Layer 1
10
27.361300
20
45.667200
11
27.161659
21
45.584365
0
LINE
8
Layer 1
10
27.161659
20
45.584365
11
27.079073
21
45.384973
0
LINE
8
Layer 1
10
27.079073
20
45.384973
11
27.079100
21
41.998300
0
LINE
8
Layer 1
10
27.079100
20
41.998300
11
27.161935
21
41.798679
0
LINE
8
Layer 1
10
27.161935
20
41.798679
11
27.361327
21
41.716073
0
LINE
8
Layer 1
10
27.361327
20
41.716073
11
27.925700
21
41.716100
0
LINE
8
Layer 1
10
27.925700
20
41.716100
11
27.925700
21
41.433800
0
LINE
8
Layer 1
10
27.925700
20
41.433800
11
28.066809
21
41.292721
0
LINE
8
Layer 1
10
28.066809
20
41.292721
11
30.042400
21
41.292700
0
LINE
8
Layer 1
10
30.042400
20
41.292700
11
30.183488
21
41.433779
0
LINE
8
Layer 1
10
30.183488
20
41.433779
11
30.183500
21
41.716100
0
LINE
8
Layer 1
10
16.340600
20
27.899800
11
16.340600
21
24.537400
0
LINE
8
Layer 1
10
16.340600
20
24.537400
11
16.422838
21
24.339193
0
LINE
8
Layer 1
10
16.422838
20
24.339193
11
16.620786
21
24.257204
0
LINE
8
Layer 1
10
16.620786
20
24.257204
11
19.983200
21
24.257200
0
LINE
8
Layer 1
10
19.983200
20
24.257200
11
20.181407
21
24.339438
0
LINE
8
Layer 1
10
20.181407
20
24.339438
11
20.263396
21
24.537396
0
LINE
8
Layer 1
10
20.263396
20
24.537396
11
20.263400
21
27.899800
0
LINE
8
Layer 1
10
20.263400
20
27.899800
11
20.181152
21
28.097978
0
LINE
8
Layer 1
10
20.181152
20
28.097978
11
19.983204
21
28.179987
0
LINE
8
Layer 1
10
19.983204
20
28.179987
11
16.620800
21
28.180000
0
LINE
8
Layer 1
10
16.620800
20
28.180000
11
16.422593
21
28.097732
0
LINE
8
Layer 1
10
16.422593
20
28.097732
11
16.340614
21
27.899813
0
LINE
8
Layer 1
10
16.340614
20
27.899813
11
16.340600
21
27.899800
0
LINE
8
Layer 1
10
10.964300
20
27.899800
11
11.046199
21
28.097838
0
LINE
8
Layer 1
10
11.046199
20
28.097838
11
11.244486
21
28.179986
0
LINE
8
Layer 1
10
11.244486
20
28.179986
11
14.606900
21
28.180000
0
LINE
8
Layer 1
10
14.606900
20
28.180000
11
14.804938
21
28.098101
0
LINE
8
Layer 1
10
14.804938
20
28.098101
11
14.887097
21
27.899814
0
LINE
8
Layer 1
10
14.887097
20
27.899814
11
14.887100
21
24.537400
0
LINE
8
Layer 1
10
14.887100
20
24.537400
11
14.805190
21
24.339332
0
LINE
8
Layer 1
10
14.805190
20
24.339332
11
14.606903
21
24.257204
0
LINE
8
Layer 1
10
14.606903
20
24.257204
11
11.244400
21
24.257200
0
LINE
8
Layer 1
10
11.244400
20
24.257200
11
11.046362
21
24.339079
0
LINE
8
Layer 1
10
11.046362
20
24.339079
11
10.964214
21
24.537396
0
LINE
8
Layer 1
10
10.964214
20
24.537396
11
10.964300
21
27.899800
0
LINE
8
Layer 1
10
16.340600
20
22.523500
11
16.422499
21
22.721538
0
LINE
8
Layer 1
10
16.422499
20
22.721538
11
16.620786
21
22.803686
0
LINE
8
Layer 1
10
16.620786
20
22.803686
11
19.983200
21
22.803700
0
LINE
8
Layer 1
10
19.983200
20
22.803700
11
20.181238
21
22.721801
0
LINE
8
Layer 1
10
20.181238
20
22.721801
11
20.263396
21
22.523514
0
LINE
8
Layer 1
10
20.263396
20
22.523514
11
20.263400
21
19.161000
0
LINE
8
Layer 1
10
20.263400
20
19.161000
11
20.181491
21
18.962932
0
LINE
8
Layer 1
10
20.181491
20
18.962932
11
19.983204
21
18.880803
0
LINE
8
Layer 1
10
19.983204
20
18.880803
11
16.620800
21
18.880800
0
LINE
8
Layer 1
10
16.620800
20
18.880800
11
16.422762
21
18.962680
0
LINE
8
Layer 1
10
16.422762
20
18.962680
11
16.340614
21
19.160997
0
LINE
8
Layer 1
10
16.340614
20
19.160997
11
16.340600
21
22.523500
0
LINE
8
Layer 1
10
21.716900
20
17.147200
11
21.798799
21
17.345238
0
LINE
8
Layer 1
10
21.798799
20
17.345238
11
21.997086
21
17.427386
0
LINE
8
Layer 1
10
21.997086
20
17.427386
11
25.359600
21
17.427300
0
LINE
8
Layer 1
10
25.359600
20
17.427300
11
25.557638
21
17.345401
0
LINE
8
Layer 1
10
25.557638
20
17.345401
11
25.639796
21
17.147114
0
LINE
8
Layer 1
10
25.639796
20
17.147114
11
25.639700
21
13.784700
0
LINE
8
Layer 1
10
25.639700
20
13.784700
11
25.557790
21
13.586632
0
LINE
8
Layer 1
10
25.557790
20
13.586632
11
25.359503
21
13.504504
0
LINE
8
Layer 1
10
25.359503
20
13.504504
11
21.997100
21
13.504500
0
LINE
8
Layer 1
10
21.997100
20
13.504500
11
21.799062
21
13.586379
0
LINE
8
Layer 1
10
21.799062
20
13.586379
11
21.716914
21
13.784696
0
LINE
8
Layer 1
10
21.716914
20
13.784696
11
21.716900
21
17.147200
0
LINE
8
Layer 1
10
21.716900
20
22.523500
11
21.798799
21
22.721538
0
LINE
8
Layer 1
10
21.798799
20
22.721538
11
21.997086
21
22.803686
0
LINE
8
Layer 1
10
21.997086
20
22.803686
11
25.359600
21
22.803700
0
LINE
8
Layer 1
10
25.359600
20
22.803700
11
25.557638
21
22.721801
0
LINE
8
Layer 1
10
25.557638
20
22.721801
11
25.639796
21
22.523514
0
LINE
8
Layer 1
10
25.639796
20
22.523514
11
25.639700
21
19.161000
0
LINE
8
Layer 1
10
25.639700
20
19.161000
11
25.557790
21
18.962932
0
LINE
8
Layer 1
10
25.557790
20
18.962932
11
25.359503
21
18.880803
0
LINE
8
Layer 1
10
25.359503
20
18.880803
11
21.997100
21
18.880800
0
LINE
8
Layer 1
10
21.997100
20
18.880800
11
21.799062
21
18.962680
0
LINE
8
Layer 1
10
21.799062
20
18.962680
11
21.716914
21
19.160997
0
LINE
8
Layer 1
10
21.716914
20
19.160997
11
21.716900
21
22.523500
0
LINE
8
Layer 1
10
16.340600
20
38.652400
11
16.422500
21
38.850500
0
LINE
8
Layer 1
10
16.422500
20
38.850500
11
16.620800
21
38.932600
0
LINE
8
Layer 1
10
16.620800
20
38.932600
11
19.983200
21
38.932600
0
LINE
8
Layer 1
10
19.983200
20
38.932600
11
20.181238
21
38.850730
0
LINE
8
Layer 1
10
20.181238
20
38.850730
11
20.263396
21
38.652413
0
LINE
8
Layer 1
10
20.263396
20
38.652413
11
20.263400
21
35.290000
0
LINE
8
Layer 1
10
20.263400
20
35.290000
11
20.181491
21
35.091962
0
LINE
8
Layer 1
10
20.181491
20
35.091962
11
19.983204
21
35.009804
0
LINE
8
Layer 1
10
19.983204
20
35.009804
11
16.620800
21
35.009800
0
LINE
8
Layer 1
10
16.620800
20
35.009800
11
16.422762
21
35.091709
0
LINE
8
Layer 1
10
16.422762
20
35.091709
11
16.340614
21
35.289996
0
LINE
8
Layer 1
10
16.340614
20
35.289996
11
16.340600
21
38.652400
0
LINE
8
Layer 1
10
16.340600
20
33.276100
11
16.422499
21
33.474168
0
LINE
8
Layer 1
10
16.422499
20
33.474168
11
16.620786
21
33.556286
0
LINE
8
Layer 1
10
16.620786
20
33.556286
11
19.983200
21
33.556300
0
LINE
8
Layer 1
10
19.983200
20
33.556300
11
20.181238
21
33.474430
0
LINE
8
Layer 1
10
20.181238
20
33.474430
11
20.263396
21
33.276113
0
LINE
8
Layer 1
10
20.263396
20
33.276113
11
20.263400
21
29.913700
0
LINE
8
Layer 1
10
20.263400
20
29.913700
11
20.181491
21
29.715632
0
LINE
8
Layer 1
10
20.181491
20
29.715632
11
19.983204
21
29.633503
0
LINE
8
Layer 1
10
19.983204
20
29.633503
11
16.620800
21
29.633500
0
LINE
8
Layer 1
10
16.620800
20
29.633500
11
16.422762
21
29.715380
0
LINE
8
Layer 1
10
16.422762
20
29.715380
11
16.340614
21
29.913697
0
LINE
8
Layer 1
10
16.340614
20
29.913697
11
16.340600
21
33.276100
0
LINE
8
Layer 1
10
27.093300
20
38.652400
11
27.175100
21
38.850500
0
LINE
8
Layer 1
10
27.175100
20
38.850500
11
27.373400
21
38.932600
0
LINE
8
Layer 1
10
27.373400
20
38.932600
11
30.735900
21
38.932600
0
LINE
8
Layer 1
10
30.735900
20
38.932600
11
30.933938
21
38.850730
0
LINE
8
Layer 1
10
30.933938
20
38.850730
11
31.016096
21
38.652413
0
LINE
8
Layer 1
10
31.016096
20
38.652413
11
31.016100
21
35.290000
0
LINE
8
Layer 1
10
31.016100
20
35.290000
11
30.934191
21
35.091962
0
LINE
8
Layer 1
10
30.934191
20
35.091962
11
30.735905
21
35.009804
0
LINE
8
Layer 1
10
30.735905
20
35.009804
11
27.373400
21
35.009800
0
LINE
8
Layer 1
10
27.373400
20
35.009800
11
27.175362
21
35.091709
0
LINE
8
Layer 1
10
27.175362
20
35.091709
11
27.093214
21
35.289996
0
LINE
8
Layer 1
10
27.093214
20
35.289996
11
27.093300
21
38.652400
0
LINE
8
Layer 1
10
10.964300
20
33.276100
11
10.964300
21
29.913700
0
LINE
8
Layer 1
10
10.964300
20
29.913700
11
11.046538
21
29.715493
0
LINE
8
Layer 1
10
11.046538
20
29.715493
11
11.244487
21
29.633504
0
LINE
8
Layer 1
10
11.244487
20
29.633504
11
14.606900
21
29.633500
0
LINE
8
Layer 1
10
14.606900
20
29.633500
11
14.805107
21
29.715738
0
LINE
8
Layer 1
10
14.805107
20
29.715738
11
14.887096
21
29.913696
0
LINE
8
Layer 1
10
14.887096
20
29.913696
11
14.887100
21
33.276100
0
LINE
8
Layer 1
10
14.887100
20
33.276100
11
14.804852
21
33.474307
0
LINE
8
Layer 1
10
14.804852
20
33.474307
11
14.606903
21
33.556286
0
LINE
8
Layer 1
10
14.606903
20
33.556286
11
11.244400
21
33.556300
0
LINE
8
Layer 1
10
11.244400
20
33.556300
11
11.046193
21
33.474062
0
LINE
8
Layer 1
10
11.046193
20
33.474062
11
10.964214
21
33.276113
0
LINE
8
Layer 1
10
10.964214
20
33.276113
11
10.964300
21
33.276100
0
LINE
8
Layer 1
10
23.161200
20
43.691600
11
23.338921
21
43.262562
0
LINE
8
Layer 1
10
23.338921
20
43.262562
11
23.767978
21
43.084851
0
LINE
8
Layer 1
10
23.767978
20
43.084851
11
24.197027
21
43.262554
0
LINE
8
Layer 1
10
24.197027
20
43.262554
11
24.374747
21
43.691600
0
LINE
8
Layer 1
10
24.374747
20
43.691600
11
24.197027
21
44.120668
0
LINE
8
Layer 1
10
24.197027
20
44.120668
11
23.767978
21
44.298378
0
LINE
8
Layer 1
10
23.767978
20
44.298378
11
23.338921
21
44.120683
0
LINE
8
Layer 1
10
23.338921
20
44.120683
11
23.161200
21
43.691629
0
LINE
8
Layer 1
10
23.161200
20
43.691629
11
23.161200
21
43.691600
0
LINE
8
Layer 1
10
10.964300
20
22.523500
11
11.046199
21
22.721538
0
LINE
8
Layer 1
10
11.046199
20
22.721538
11
11.244486
21
22.803686
0
LINE
8
Layer 1
10
11.244486
20
22.803686
11
14.606900
21
22.803700
0
LINE
8
Layer 1
10
14.606900
20
22.803700
11
14.804938
21
22.721801
0
LINE
8
Layer 1
10
14.804938
20
22.721801
11
14.887097
21
22.523514
0
LINE
8
Layer 1
10
14.887097
20
22.523514
11
14.887100
21
19.161000
0
LINE
8
Layer 1
10
14.887100
20
19.161000
11
14.805190
21
18.962932
0
LINE
8
Layer 1
10
14.805190
20
18.962932
11
14.606903
21
18.880803
0
LINE
8
Layer 1
10
14.606903
20
18.880803
11
11.244400
21
18.880800
0
LINE
8
Layer 1
10
11.244400
20
18.880800
11
11.046362
21
18.962680
0
LINE
8
Layer 1
10
11.046362
20
18.962680
11
10.964214
21
19.160997
0
LINE
8
Layer 1
10
10.964214
20
19.160997
11
10.964300
21
22.523500
0
LINE
8
Layer 1
10
21.716900
20
33.276100
11
21.798799
21
33.474168
0
LINE
8
Layer 1
10
21.798799
20
33.474168
11
21.997086
21
33.556286
0
LINE
8
Layer 1
10
21.997086
20
33.556286
11
25.359600
21
33.556300
0
LINE
8
Layer 1
10
25.359600
20
33.556300
11
25.557638
21
33.474430
0
LINE
8
Layer 1
10
25.557638
20
33.474430
11
25.639796
21
33.276113
0
LINE
8
Layer 1
10
25.639796
20
33.276113
11
25.639700
21
29.913700
0
LINE
8
Layer 1
10
25.639700
20
29.913700
11
25.557790
21
29.715632
0
LINE
8
Layer 1
10
25.557790
20
29.715632
11
25.359503
21
29.633503
0
LINE
8
Layer 1
10
25.359503
20
29.633503
11
21.997100
21
29.633500
0
LINE
8
Layer 1
10
21.997100
20
29.633500
11
21.799062
21
29.715380
0
LINE
8
Layer 1
10
21.799062
20
29.715380
11
21.716914
21
29.913697
0
LINE
8
Layer 1
10
21.716914
20
29.913697
11
21.716900
21
33.276100
0
LINE
8
Layer 1
10
10.309800
20
10.027800
11
9.878015
21
10.113396
0
LINE
8
Layer 1
10
9.878015
20
10.113396
11
9.511843
21
10.357715
0
LINE
8
Layer 1
10
9.511843
20
10.357715
11
9.267068
21
10.724291
0
LINE
8
Layer 1
10
9.267068
20
10.724291
11
9.180910
21
11.156689
0
LINE
8
Layer 1
10
9.180910
20
11.156689
11
9.180870
21
45.743100
0
LINE
8
Layer 1
10
9.180870
20
45.743100
11
9.437670
21
47.038478
0
LINE
8
Layer 1
10
9.437670
20
47.038478
11
10.170652
21
48.136960
0
LINE
8
Layer 1
10
10.170652
20
48.136960
11
11.270355
21
48.871318
0
LINE
8
Layer 1
10
11.270355
20
48.871318
11
12.567542
21
49.129759
0
LINE
8
Layer 1
10
12.567542
20
49.129759
11
29.412800
21
49.129800
0
LINE
8
Layer 1
10
29.412800
20
49.129800
11
30.708168
21
48.873004
0
LINE
8
Layer 1
10
30.708168
20
48.873004
11
31.806640
21
48.140018
0
LINE
8
Layer 1
10
31.806640
20
48.140018
11
32.541017
21
47.040324
0
LINE
8
Layer 1
10
32.541017
20
47.040324
11
32.799469
21
45.743138
0
LINE
8
Layer 1
10
32.799469
20
45.743138
11
32.799500
21
11.156700
0
LINE
8
Layer 1
10
32.799500
20
11.156700
11
32.713907
21
10.724903
0
LINE
8
Layer 1
10
32.713907
20
10.724903
11
32.469585
21
10.358742
0
LINE
8
Layer 1
10
32.469585
20
10.358742
11
32.103012
21
10.113945
0
LINE
8
Layer 1
10
32.103012
20
10.113945
11
31.670612
21
10.027811
0
LINE
8
Layer 1
10
31.670612
20
10.027811
11
10.309800
21
10.027800
0
LINE
8
Layer 1
10
12.828200
20
48.385400
11
12.958536
21
48.159614
0
LINE
8
Layer 1
10
12.958536
20
48.159614
11
13.088892
21
47.933838
0
LINE
8
Layer 1
10
13.088892
20
47.933838
11
12.958536
21
47.708062
0
LINE
8
Layer 1
10
12.958536
20
47.708062
11
12.828180
21
47.482286
0
LINE
8
Layer 1
10
12.828180
20
47.482286
11
12.567500
21
47.482300
0
LINE
8
Layer 1
10
12.567500
20
47.482300
11
12.306800
21
47.482300
0
LINE
8
Layer 1
10
12.306800
20
47.482300
11
12.176474
21
47.708076
0
LINE
8
Layer 1
10
12.176474
20
47.708076
11
12.046118
21
47.933852
0
LINE
8
Layer 1
10
12.046118
20
47.933852
11
12.176474
21
48.159628
0
LINE
8
Layer 1
10
12.176474
20
48.159628
11
12.306830
21
48.385414
0
LINE
8
Layer 1
10
12.306830
20
48.385414
11
12.567500
21
48.385400
0
LINE
8
Layer 1
10
12.567500
20
48.385400
11
12.828200
21
48.385400
0
LINE
8
Layer 1
10
29.673500
20
48.385400
11
29.803856
21
48.159614
0
LINE
8
Layer 1
10
29.803856
20
48.159614
11
29.934212
21
47.933838
0
LINE
8
Layer 1
10
29.934212
20
47.933838
11
29.803856
21
47.708062
0
LINE
8
Layer 1
10
29.803856
20
47.708062
11
29.673500
21
47.482286
0
LINE
8
Layer 1
10
29.673500
20
47.482286
11
29.412800
21
47.482300
0
LINE
8
Layer 1
10
29.412800
20
47.482300
11
29.152100
21
47.482300
0
LINE
8
Layer 1
10
29.152100
20
47.482300
11
29.021733
21
47.708076
0
LINE
8
Layer 1
10
29.021733
20
47.708076
11
28.891377
21
47.933852
0
LINE
8
Layer 1
10
28.891377
20
47.933852
11
29.021733
21
48.159628
0
LINE
8
Layer 1
10
29.021733
20
48.159628
11
29.152100
21
48.385414
0
LINE
8
Layer 1
10
29.152100
20
48.385414
11
29.412800
21
48.385400
0
LINE
8
Layer 1
10
29.412800
20
48.385400
11
29.673500
21
48.385400
0
LINE
8
Layer 1
10
31.685200
20
11.854300
11
31.815567
21
11.628524
0
LINE
8
Layer 1
10
31.815567
20
11.628524
11
31.945923
21
11.402738
0
LINE
8
Layer 1
10
31.945923
20
11.402738
11
31.815567
21
11.176962
0
LINE
8
Layer 1
10
31.815567
20
11.176962
11
31.685200
21
10.951186
0
LINE
8
Layer 1
10
31.685200
20
10.951186
11
31.424500
21
10.951200
0
LINE
8
Layer 1
10
31.424500
20
10.951200
11
31.163800
21
10.951200
0
LINE
8
Layer 1
10
31.163800
20
10.951200
11
31.033444
21
11.176976
0
LINE
8
Layer 1
10
31.033444
20
11.176976
11
30.903088
21
11.402752
0
LINE
8
Layer 1
10
30.903088
20
11.402752
11
31.033444
21
11.628538
0
LINE
8
Layer 1
10
31.033444
20
11.628538
11
31.163800
21
11.854314
0
LINE
8
Layer 1
10
31.163800
20
11.854314
11
31.424500
21
11.854300
0
LINE
8
Layer 1
10
31.424500
20
11.854300
11
31.685200
21
11.854300
0
LINE
8
Layer 1
10
10.816500
20
11.854300
11
10.946856
21
11.628524
0
LINE
8
Layer 1
10
10.946856
20
11.628524
11
11.077212
21
11.402738
0
LINE
8
Layer 1
10
11.077212
20
11.402738
11
10.946856
21
11.176962
0
LINE
8
Layer 1
10
10.946856
20
11.176962
11
10.816500
21
10.951186
0
LINE
8
Layer 1
10
10.816500
20
10.951186
11
10.555900
21
10.951200
0
LINE
8
Layer 1
10
10.555900
20
10.951200
11
10.295200
21
10.951200
0
LINE
8
Layer 1
10
10.295200
20
10.951200
11
10.164844
21
11.176976
0
LINE
8
Layer 1
10
10.164844
20
11.176976
11
10.034478
21
11.402752
0
LINE
8
Layer 1
10
10.034478
20
11.402752
11
10.164844
21
11.628538
0
LINE
8
Layer 1
10
10.164844
20
11.628538
11
10.295200
21
11.854314
0
LINE
8
Layer 1
10
10.295200
20
11.854314
11
10.555900
21
11.854300
0
LINE
8
Layer 1
10
10.555900
20
11.854300
11
10.816500
21
11.854300
0
LINE
8
Layer 1
10
11.103600
20
45.481300
11
21.545800
21
45.481300
0
LINE
8
Layer 1
10
21.545800
20
45.481300
11
21.745124
21
45.398396
0
LINE
8
Layer 1
10
21.745124
20
45.398396
11
21.828027
21
45.199072
0
LINE
8
Layer 1
10
21.828027
20
45.199072
11
21.828000
21
42.094600
0
LINE
8
Layer 1
10
21.828000
20
42.094600
11
21.745096
21
41.895285
0
LINE
8
Layer 1
10
21.745096
20
41.895285
11
21.545773
21
41.812383
0
LINE
8
Layer 1
10
21.545773
20
41.812383
11
11.103600
21
41.812400
0
LINE
8
Layer 1
10
11.103600
20
41.812400
11
10.904285
21
41.895302
0
LINE
8
Layer 1
10
10.904285
20
41.895302
11
10.821383
21
42.094617
0
LINE
8
Layer 1
10
10.821383
20
42.094617
11
10.821300
21
45.199100
0
LINE
8
Layer 1
10
10.821300
20
45.199100
11
10.904203
21
45.398424
0
LINE
8
Layer 1
10
10.904203
20
45.398424
11
11.103517
21
45.481328
0
LINE
8
Layer 1
10
11.103517
20
45.481328
11
11.103600
21
45.481300
0
LINE
8
Layer 1
10
19.935500
20
17.568400
11
19.894182
21
17.668191
0
LINE
8
Layer 1
10
19.894182
20
17.668191
11
19.794381
21
17.709509
0
LINE
8
Layer 1
10
19.794381
20
17.709509
11
18.171600
21
17.709500
0
LINE
8
Layer 1
10
18.171600
20
17.709500
11
18.071809
21
17.668182
0
LINE
8
Layer 1
10
18.071809
20
17.668182
11
18.030492
21
17.568391
0
LINE
8
Layer 1
10
18.030492
20
17.568391
11
18.030500
21
17.427300
0
LINE
8
Layer 1
10
18.030500
20
17.427300
11
13.197200
21
17.427300
0
LINE
8
Layer 1
10
13.197200
20
17.427300
11
13.197200
21
17.568400
0
LINE
8
Layer 1
10
13.197200
20
17.568400
11
13.155882
21
17.668191
0
LINE
8
Layer 1
10
13.155882
20
17.668191
11
13.056081
21
17.709509
0
LINE
8
Layer 1
10
13.056081
20
17.709509
11
11.433300
21
17.709500
0
LINE
8
Layer 1
10
11.433300
20
17.709500
11
11.333509
21
17.668182
0
LINE
8
Layer 1
10
11.333509
20
17.668182
11
11.292191
21
17.568391
0
LINE
8
Layer 1
10
11.292191
20
17.568391
11
11.292200
21
17.427300
0
LINE
8
Layer 1
10
11.292200
20
17.427300
11
11.091300
21
17.427300
0
LINE
8
Layer 1
10
11.091300
20
17.427300
11
10.991509
21
17.385992
0
LINE
8
Layer 1
10
10.991509
20
17.385992
11
10.950191
21
17.286191
0
LINE
8
Layer 1
10
10.950191
20
17.286191
11
10.950100
21
13.645600
0
LINE
8
Layer 1
10
10.950100
20
13.645600
11
10.991418
21
13.545799
0
LINE
8
Layer 1
10
10.991418
20
13.545799
11
11.091209
21
13.504481
0
LINE
8
Layer 1
10
11.091209
20
13.504481
11
20.136500
21
13.504500
0
LINE
8
Layer 1
10
20.136500
20
13.504500
11
20.236301
21
13.545818
0
LINE
8
Layer 1
10
20.236301
20
13.545818
11
20.277619
21
13.645619
0
LINE
8
Layer 1
10
20.277619
20
13.645619
11
20.277600
21
17.286200
0
LINE
8
Layer 1
10
20.277600
20
17.286200
11
20.236282
21
17.386001
0
LINE
8
Layer 1
10
20.236282
20
17.386001
11
20.136481
21
17.427309
0
LINE
8
Layer 1
10
20.136481
20
17.427309
11
19.935500
21
17.427300
0
LINE
8
Layer 1
10
19.935500
20
17.427300
11
19.935500
21
17.568400
0
LINE
8
Layer 1
10
26.952100
20
22.475700
11
26.852309
21
22.434382
0
LINE
8
Layer 1
10
26.852309
20
22.434382
11
26.810991
21
22.334591
0
LINE
8
Layer 1
10
26.810991
20
22.334591
11
26.811000
21
20.711800
0
LINE
8
Layer 1
10
26.811000
20
20.711800
11
26.852318
21
20.612009
0
LINE
8
Layer 1
10
26.852318
20
20.612009
11
26.952109
21
20.570691
0
LINE
8
Layer 1
10
26.952109
20
20.570691
11
27.093300
21
20.570700
0
LINE
8
Layer 1
10
27.093300
20
20.570700
11
27.093300
21
15.737400
0
LINE
8
Layer 1
10
27.093300
20
15.737400
11
26.952100
21
15.737400
0
LINE
8
Layer 1
10
26.952100
20
15.737400
11
26.852309
21
15.696082
0
LINE
8
Layer 1
10
26.852309
20
15.696082
11
26.810991
21
15.596291
0
LINE
8
Layer 1
10
26.810991
20
15.596291
11
26.811000
21
13.973500
0
LINE
8
Layer 1
10
26.811000
20
13.973500
11
26.852318
21
13.873709
0
LINE
8
Layer 1
10
26.852318
20
13.873709
11
26.952109
21
13.832391
0
LINE
8
Layer 1
10
26.952109
20
13.832391
11
27.093300
21
13.832400
0
LINE
8
Layer 1
10
27.093300
20
13.832400
11
27.093300
21
13.631500
0
LINE
8
Layer 1
10
27.093300
20
13.631500
11
27.134608
21
13.531709
0
LINE
8
Layer 1
10
27.134608
20
13.531709
11
27.234409
21
13.490391
0
LINE
8
Layer 1
10
27.234409
20
13.490391
11
30.875000
21
13.490300
0
LINE
8
Layer 1
10
30.875000
20
13.490300
11
30.974802
21
13.531618
0
LINE
8
Layer 1
10
30.974802
20
13.531618
11
31.016119
21
13.631409
0
LINE
8
Layer 1
10
31.016119
20
13.631409
11
31.016100
21
22.676700
0
LINE
8
Layer 1
10
31.016100
20
22.676700
11
30.974783
21
22.776501
0
LINE
8
Layer 1
10
30.974783
20
22.776501
11
30.874981
21
22.817819
0
LINE
8
Layer 1
10
30.874981
20
22.817819
11
27.234400
21
22.817800
0
LINE
8
Layer 1
10
27.234400
20
22.817800
11
27.134600
21
22.776482
0
LINE
8
Layer 1
10
27.134600
20
22.776482
11
27.093291
21
22.676681
0
LINE
8
Layer 1
10
27.093291
20
22.676681
11
27.093300
21
22.475700
0
LINE
8
Layer 1
10
27.093300
20
22.475700
11
26.952100
21
22.475700
0
LINE
8
Layer 1
10
26.952100
20
33.228400
11
26.852309
21
33.187082
0
LINE
8
Layer 1
10
26.852309
20
33.187082
11
26.810991
21
33.087291
0
LINE
8
Layer 1
10
26.810991
20
33.087291
11
26.811000
21
31.464500
0
LINE
8
Layer 1
10
26.811000
20
31.464500
11
26.852318
21
31.364709
0
LINE
8
Layer 1
10
26.852318
20
31.364709
11
26.952109
21
31.323391
0
LINE
8
Layer 1
10
26.952109
20
31.323391
11
27.093300
21
31.323400
0
LINE
8
Layer 1
10
27.093300
20
31.323400
11
27.093300
21
26.490100
0
LINE
8
Layer 1
10
27.093300
20
26.490100
11
26.952100
21
26.490100
0
LINE
8
Layer 1
10
26.952100
20
26.490100
11
26.852309
21
26.448782
0
LINE
8
Layer 1
10
26.852309
20
26.448782
11
26.810991
21
26.348991
0
LINE
8
Layer 1
10
26.810991
20
26.348991
11
26.811000
21
24.726200
0
LINE
8
Layer 1
10
26.811000
20
24.726200
11
26.852318
21
24.626409
0
LINE
8
Layer 1
10
26.852318
20
24.626409
11
26.952109
21
24.585091
0
LINE
8
Layer 1
10
26.952109
20
24.585091
11
27.093300
21
24.585100
0
LINE
8
Layer 1
10
27.093300
20
24.585100
11
27.093300
21
24.384100
0
LINE
8
Layer 1
10
27.093300
20
24.384100
11
27.134608
21
24.284309
0
LINE
8
Layer 1
10
27.134608
20
24.284309
11
27.234409
21
24.242991
0
LINE
8
Layer 1
10
27.234409
20
24.242991
11
30.875000
21
24.243000
0
LINE
8
Layer 1
10
30.875000
20
24.243000
11
30.974802
21
24.284318
0
LINE
8
Layer 1
10
30.974802
20
24.284318
11
31.016119
21
24.384109
0
LINE
8
Layer 1
10
31.016119
20
24.384109
11
31.016100
21
33.429300
0
LINE
8
Layer 1
10
31.016100
20
33.429300
11
30.974783
21
33.529100
0
LINE
8
Layer 1
10
30.974783
20
33.529100
11
30.874981
21
33.570419
0
LINE
8
Layer 1
10
30.874981
20
33.570419
11
27.234400
21
33.570400
0
LINE
8
Layer 1
10
27.234400
20
33.570400
11
27.134600
21
33.529082
0
LINE
8
Layer 1
10
27.134600
20
33.529082
11
27.093291
21
33.429281
0
LINE
8
Layer 1
10
27.093291
20
33.429281
11
27.093300
21
33.228400
0
LINE
8
Layer 1
10
27.093300
20
33.228400
11
26.952100
21
33.228400
 0 
ENDSEC
 0 
EOF